<?xml version="1.0" encoding="UTF-8"?>
<svg xmlns="http://www.w3.org/2000/svg" xmlns:xlink="http://www.w3.org/1999/xlink" viewBox="0 0 48 48" version="1.1" width="480px" height="480px">
<g id="surface1">
<path style=" fill:#F44336;" d="M 10 26 C 9.933594 25.917969 7 23.542969 7 20 C 7 15.808594 12.878906 4 24.09375 4 C 35.1875 4 41 15.839844 41 20 C 41 23.800781 38.164063 25.816406 38 26 L 36 26 C 36 26 37.625 16 24 16 C 10.375 16 12 26 12 26 Z "/>
<path style=" fill:#FFA726;" d="M 11.421875 35 C 11.332031 35 11.242188 35 11.148438 34.996094 L 11 34.996094 C 8.472656 34.996094 6 31.414063 6 27.996094 C 6 25.371094 7.507813 23.996094 9 23.996094 C 10.179688 23.996094 12.054688 24.570313 13.449219 26.195313 L 13.71875 26.511719 L 12.972656 34.742188 L 12.285156 34.921875 C 12.050781 34.984375 11.761719 35 11.421875 35 Z M 35.710938 34.925781 L 35.023438 34.742188 L 34.277344 26.511719 L 34.550781 26.195313 C 35.945313 24.574219 37.820313 23.996094 39 23.996094 C 40.488281 23.996094 42 25.371094 42 27.996094 C 42 31.414063 39.527344 34.996094 37 34.996094 L 36.851563 34.996094 C 36.757813 35 36.667969 35 36.578125 35 C 36.238281 35 35.949219 34.984375 35.710938 34.925781 Z "/>
<path style=" fill:#F57F17;" d="M 12 29.5 C 12 30.328125 11.328125 31 10.5 31 C 9.671875 31 9 30.328125 9 29.5 C 9 28.671875 9.671875 28 10.5 28 C 11.328125 28 12 28.671875 12 29.5 Z M 36 29.5 C 36 30.328125 36.671875 31 37.5 31 C 38.328125 31 39 30.328125 39 29.5 C 39 28.671875 38.328125 28 37.5 28 C 36.671875 28 36 28.671875 36 29.5 Z "/>
<path style=" fill:#FFFFFF;" d="M 29 12 C 29 14.761719 26.761719 17 24 17 C 21.238281 17 19 14.761719 19 12 C 19 9.238281 21.238281 7 24 7 C 26.761719 7 29 9.238281 29 12 Z "/>
<path style=" fill:#F44336;" d="M 21.425781 12.933594 C 21.425781 12.933594 20.035156 12.234375 20 12.132813 C 19.964844 12.03125 22.339844 8.03125 22.339844 8.03125 L 23.980469 9.601563 L 25.699219 8 L 28 12.132813 L 26.574219 13 L 25.441406 9.667969 L 24.054688 11.234375 L 22.519531 9.632813 Z "/>
<path style=" fill:#FFB74D;" d="M 24 44 C 21.273438 44 19.941406 43.195313 18.652344 42.417969 C 18.308594 42.210938 17.957031 41.996094 17.554688 41.789063 C 17.339844 41.675781 17.082031 41.558594 16.792969 41.433594 C 14.730469 40.507813 11 38.433594 11 33 C 11 31.886719 11.167969 30.554688 11.417969 29.058594 C 11.59375 28.019531 12 26.433594 12 26 C 12 25.28125 11.507813 22.210938 11 21 C 11 21 14.417969 16 24 16 C 33.582031 16 36 21 36 21 L 37 21 C 36.492188 22.210938 36 25.28125 36 26 C 36 26.433594 36.40625 28.019531 36.578125 29.058594 C 36.828125 30.554688 37 31.886719 37 33 C 37 38.433594 33.269531 40.507813 31.203125 41.433594 C 30.917969 41.5625 30.65625 41.675781 30.441406 41.789063 C 30.042969 41.996094 29.6875 42.210938 29.34375 42.421875 C 28.058594 43.195313 26.726563 44 24 44 Z "/>
<path style=" fill:#FFFFFF;" d="M 29 24 C 30.105469 24 31 25.117188 31 26.5 C 31 27.882813 30.105469 29 29 29 C 27.894531 29 27 27.882813 27 26.5 C 27 25.117188 27.894531 24 29 24 Z M 21 26.5 C 21 27.882813 20.105469 29 19 29 C 17.894531 29 17 27.882813 17 26.5 C 17 25.117188 17.894531 24 19 24 C 20.105469 24 21 25.117188 21 26.5 Z "/>
<path style=" fill:#2196F3;" d="M 28.5 25 C 29.328125 25 30 25.894531 30 27 C 30 28.105469 29.328125 29 28.5 29 C 27.671875 29 27 28.105469 27 27 C 27 25.894531 27.671875 25 28.5 25 Z M 21 27 C 21 28.105469 20.328125 29 19.5 29 C 18.671875 29 18 28.105469 18 27 C 18 25.894531 18.671875 25 19.5 25 C 20.328125 25 21 25.894531 21 27 Z "/>
<path style=" fill:#263238;" d="M 28 26 C 28.550781 26 29 26.671875 29 27.5 C 29 28.328125 28.550781 29 28 29 C 27.449219 29 27 28.328125 27 27.5 C 27 26.671875 27.449219 26 28 26 Z M 21 27.5 C 21 28.328125 20.550781 29 20 29 C 19.449219 29 19 28.328125 19 27.5 C 19 26.671875 19.449219 26 20 26 C 20.550781 26 21 26.671875 21 27.5 Z "/>
<path style=" fill:#263238;" d="M 33 23 C 33 23 32.390625 22.753906 31.660156 22.425781 C 31.285156 22.277344 30.878906 22.105469 30.507813 22.019531 C 30.328125 21.988281 30.15625 21.960938 30.039063 21.980469 L 30.003906 21.980469 C 30.035156 21.980469 29.921875 21.984375 30.078125 21.976563 L 30.066406 21.980469 L 29.964844 21.992188 L 29.757813 22.015625 C 29.597656 22.027344 29.613281 22.070313 29.527344 22.074219 C 29.378906 22.113281 29.167969 22.195313 28.980469 22.273438 C 28.785156 22.363281 28.589844 22.464844 28.390625 22.574219 C 27.996094 22.792969 27.609375 23.039063 27.257813 23.25 C 26.566406 23.6875 26 24 26 24 C 26 24 25.996094 23.34375 26.394531 22.511719 C 26.585938 22.09375 26.871094 21.628906 27.296875 21.195313 C 27.503906 20.976563 27.753906 20.773438 28.035156 20.589844 C 28.324219 20.40625 28.628906 20.257813 29.011719 20.144531 C 29.199219 20.097656 29.476563 20.039063 29.597656 20.035156 L 29.804688 20.023438 L 29.921875 20.023438 L 30.003906 20.019531 L 30.019531 20.019531 L 30.136719 20.03125 C 30.574219 20.0625 30.921875 20.222656 31.222656 20.378906 C 31.808594 20.722656 32.179688 21.152344 32.433594 21.550781 C 32.949219 22.339844 33 23 33 23 Z M 21.914063 23.59375 C 21.84375 23.34375 21.726563 22.988281 21.519531 22.585938 C 21.425781 22.378906 21.292969 22.175781 21.144531 21.957031 C 21.003906 21.734375 20.828125 21.515625 20.625 21.300781 C 20.21875 20.875 19.683594 20.445313 18.988281 20.207031 C 18.621094 20.082031 18.300781 20.027344 17.835938 20.023438 L 17.621094 20.035156 C 17.503906 20.054688 17.386719 20.074219 17.273438 20.097656 C 17.050781 20.160156 16.910156 20.222656 16.742188 20.296875 C 16.125 20.613281 15.734375 21.046875 15.476563 21.449219 C 15.226563 21.863281 15.097656 22.242188 15.046875 22.53125 C 14.984375 22.8125 15 23 15 23 C 15 23 15.183594 22.964844 15.441406 22.878906 C 15.710938 22.800781 16.054688 22.667969 16.429688 22.527344 C 16.796875 22.382813 17.191406 22.21875 17.527344 22.105469 C 17.601563 22.082031 17.710938 22.042969 17.746094 22.039063 C 17.761719 22.039063 17.777344 22.027344 17.796875 22.015625 L 17.988281 21.992188 C 18.070313 21.96875 18.300781 21.984375 18.476563 22.011719 C 19.242188 22.140625 20.164063 22.714844 20.832031 23.175781 C 21.5 23.648438 22 24 22 24 C 22 24 21.976563 23.851563 21.914063 23.59375 Z M 34 33.4375 C 34 34.730469 32.925781 35.738281 32.109375 35.738281 C 31.859375 37.300781 30.867188 37.96875 29.863281 37.96875 C 28.863281 37.96875 28.335938 37.613281 28.335938 37.613281 C 28.335938 37.613281 27.320313 38.964844 25.996094 38.964844 C 24.832031 38.964844 23.976563 38.375 23.976563 38.375 C 23.976563 38.375 23.203125 39 22.109375 39 C 20.703125 39 19.78125 37.703125 19.664063 37.589844 C 19.597656 37.621094 19.082031 37.972656 18.195313 37.972656 C 16.144531 37.972656 15.929688 35.761719 15.929688 35.761719 C 15.929688 35.761719 13.996094 35.648438 13.996094 33.367188 C 13.996094 31.433594 14.601563 31 14.601563 31 C 14.601563 31 14.949219 32.414063 18.847656 33.097656 C 19.320313 35.027344 21.445313 36.484375 23.996094 36.484375 C 26.550781 36.484375 28.671875 35.03125 29.144531 33.105469 C 31.226563 32.75 32.621094 32.097656 33.414063 31.023438 C 33.417969 31.023438 34 31.492188 34 33.4375 Z "/>
<path style=" fill:#FFD49C;" d="M 24 37 C 20.691406 37 18 34.757813 18 32 C 18 29.242188 20.691406 27 24 27 C 27.308594 27 30 29.242188 30 32 C 30 34.757813 27.308594 37 24 37 Z "/>
<path style=" fill:#795548;" d="M 37 22 C 37 22 36.882813 31.03125 36.949219 31.886719 C 35.703125 28.863281 34 28 34 28 L 34 22 Z M 11 22 C 11 22 11.117188 31.03125 11.050781 31.886719 C 12.296875 28.863281 14 28 14 28 L 14 22 Z "/>
<path style=" fill:#FF8A80;" d="M 24 13 C 12.992188 13 10 19.0625 10 20 C 10 21.824219 11 23 11 23 C 12.5 25.3125 14 23 14 23 C 14.042969 22.960938 17.144531 19 24 19 C 30.855469 19 33.957031 22.960938 34 23 C 34 23 35.5 25.3125 37 23 C 37 23 38 21.824219 38 20 C 38 19.0625 35.007813 13 24 13 Z "/>
</g>
</svg>
